<svg width="50" height="50" viewBox="0 0 50 50" fill="none" xmlns="http://www.w3.org/2000/svg">
    <g id="Frame 1321314347">
        <rect id="Rectangle 34625674" width="50" height="50" rx="4" fill="#F06548" />
        <g id="add_to_photos">
            <mask id="mask0_1445_8217" style="mask-type:alpha" maskUnits="userSpaceOnUse" x="9" y="9" width="32"
                height="32">
                <rect id="Bounding box" x="9" y="9" width="32" height="32" fill="#D9D9D9" />
            </mask>
            <g mask="url(#mask0_1445_8217)">
                <path id="add_to_photos_2"
                    d="M26.3346 27.3329H28.3345V23.3329H32.3345V21.333H28.3345V17.333H26.3346V21.333H22.3346V23.3329H26.3346V27.3329ZM19.7448 32.3329C19.0713 32.3329 18.5012 32.0996 18.0346 31.6329C17.5679 31.1663 17.3346 30.5962 17.3346 29.9227V14.7433C17.3346 14.0698 17.5679 13.4997 18.0346 13.033C18.5012 12.5663 19.0713 12.333 19.7448 12.333H34.9243C35.5978 12.333 36.1678 12.5663 36.6345 13.033C37.1012 13.4997 37.3345 14.0698 37.3345 14.7433V29.9227C37.3345 30.5962 37.1012 31.1663 36.6345 31.6329C36.1678 32.0996 35.5978 32.3329 34.9243 32.3329H19.7448ZM19.7448 30.333H34.9243C35.0268 30.333 35.1208 30.2902 35.2063 30.2048C35.2918 30.1193 35.3345 30.0253 35.3345 29.9227V14.7433C35.3345 14.6407 35.2918 14.5467 35.2063 14.4612C35.1208 14.3757 35.0268 14.333 34.9243 14.333H19.7448C19.6423 14.333 19.5482 14.3757 19.4628 14.4612C19.3773 14.5467 19.3345 14.6407 19.3345 14.7433V29.9227C19.3345 30.0253 19.3773 30.1193 19.4628 30.2048C19.5482 30.2902 19.6423 30.333 19.7448 30.333ZM15.0782 36.9995C14.4047 36.9995 13.8346 36.7662 13.368 36.2995C12.9013 35.8329 12.668 35.2628 12.668 34.5893V17.4099H14.6679V34.5893C14.6679 34.6919 14.7107 34.7859 14.7961 34.8714C14.8816 34.9569 14.9756 34.9996 15.0782 34.9996H32.2576V36.9995H15.0782Z"
                    fill="white" />
            </g>
        </g>
    </g>
</svg>