<svg width="20" height="20" viewBox="0 0 20 20" fill="none" xmlns="http://www.w3.org/2000/svg">
<mask id="mask0_1188_11641" style="mask-type:alpha" maskUnits="userSpaceOnUse" x="0" y="0" width="20" height="20">
<rect width="20" height="20" fill="#D9D9D9"/>
</mask>
<g mask="url(#mask0_1188_11641)">
<path d="M6.20964 13.791H11.7929V12.7077H6.20964V13.791ZM6.20964 10.541H13.7929V9.45768H6.20964V10.541ZM6.20964 7.29098H13.7929V6.20768H6.20964V7.29098ZM4.75772 16.5826C4.38261 16.5826 4.06554 16.4531 3.80651 16.1941C3.54748 15.9351 3.41797 15.618 3.41797 15.2429V4.75577C3.41797 4.38066 3.54748 4.06359 3.80651 3.80456C4.06554 3.54553 4.38261 3.41602 4.75772 3.41602H15.2448C15.62 3.41602 15.937 3.54553 16.1961 3.80456C16.4551 4.06359 16.5846 4.38066 16.5846 4.75577V15.2429C16.5846 15.618 16.4551 15.9351 16.1961 16.1941C15.937 16.4531 15.62 16.5826 15.2448 16.5826H4.75772ZM4.75772 15.4993H15.2448C15.309 15.4993 15.3677 15.4726 15.4212 15.4192C15.4746 15.3658 15.5013 15.307 15.5013 15.2429V4.75577C15.5013 4.69166 15.4746 4.63288 15.4212 4.57945C15.3677 4.52604 15.309 4.49933 15.2448 4.49933H4.75772C4.69361 4.49933 4.63484 4.52604 4.58141 4.57945C4.52799 4.63288 4.50128 4.69166 4.50128 4.75577V15.2429C4.50128 15.307 4.52799 15.3658 4.58141 15.4192C4.63484 15.4726 4.69361 15.4993 4.75772 15.4993Z" fill="#1C1B1F"/>
</g>
</svg>
