<svg width="24" height="24" viewBox="0 0 24 24" fill="none" xmlns="http://www.w3.org/2000/svg">
<mask id="mask0_759_29890" style="mask-type:alpha" maskUnits="userSpaceOnUse" x="0" y="0" width="24" height="24">
<rect width="24" height="24" fill="#D9D9D9"/>
</mask>
<g mask="url(#mask0_759_29890)">
<path d="M4.3077 19.5C3.80257 19.5 3.375 19.325 3.025 18.975C2.675 18.625 2.5 18.1974 2.5 17.6923V6.3077C2.5 5.80257 2.675 5.375 3.025 5.025C3.375 4.675 3.80257 4.5 4.3077 4.5H19.6923C20.1974 4.5 20.625 4.675 20.975 5.025C21.325 5.375 21.5 5.80257 21.5 6.3077V17.6923C21.5 18.1974 21.325 18.625 20.975 18.975C20.625 19.325 20.1974 19.5 19.6923 19.5H4.3077ZM3.99998 11.25H8.33655V5.99998H4.3077C4.21795 5.99998 4.14423 6.02882 4.08653 6.08652C4.02883 6.14423 3.99998 6.21795 3.99998 6.3077V11.25ZM9.8365 11.25H14.1635V5.99998H9.8365V11.25ZM15.6634 11.25H20V6.3077C20 6.21795 19.9711 6.14423 19.9134 6.08652C19.8557 6.02882 19.782 5.99998 19.6923 5.99998H15.6634V11.25ZM8.33655 18V12.75H3.99998V17.6923C3.99998 17.782 4.02883 17.8557 4.08653 17.9134C4.14423 17.9711 4.21795 18 4.3077 18H8.33655ZM9.8365 18H14.1635V12.75H9.8365V18ZM15.6634 18H19.6923C19.782 18 19.8557 17.9711 19.9134 17.9134C19.9711 17.8557 20 17.782 20 17.6923V12.75H15.6634V18Z" fill="#4D4D4D"/>
</g>
</svg>
