<svg width="24" height="24" viewBox="0 0 24 24" fill="none" xmlns="http://www.w3.org/2000/svg">
<mask id="mask0_1188_11670" style="mask-type:alpha" maskUnits="userSpaceOnUse" x="0" y="0" width="24" height="24">
<rect width="24" height="24" fill="#D9D9D9"/>
</mask>
<g mask="url(#mask0_1188_11670)">
<path d="M4.25 22.1931V20.6931H19.75V22.1931H4.25ZM4.25 3.30857V1.80859H19.75V3.30857H4.25ZM12 13.5009C12.7628 13.5009 13.4118 13.2332 13.9471 12.698C14.4823 12.1627 14.75 11.5137 14.75 10.7509C14.75 9.98808 14.4823 9.33904 13.9471 8.80379C13.4118 8.26854 12.7628 8.00092 12 8.00092C11.2372 8.00092 10.5881 8.26854 10.0529 8.80379C9.51763 9.33904 9.25 9.98808 9.25 10.7509C9.25 11.5137 9.51763 12.1627 10.0529 12.698C10.5881 13.2332 11.2372 13.5009 12 13.5009ZM4.3077 19.5008C3.80257 19.5008 3.375 19.3258 3.025 18.9758C2.675 18.6258 2.5 18.1983 2.5 17.6931V6.30857C2.5 5.80344 2.675 5.37587 3.025 5.02587C3.375 4.67587 3.80257 4.50087 4.3077 4.50087H19.6923C20.1974 4.50087 20.625 4.67587 20.975 5.02587C21.325 5.37587 21.5 5.80344 21.5 6.30857V17.6931C21.5 18.1983 21.325 18.6258 20.975 18.9758C20.625 19.3258 20.1974 19.5008 19.6923 19.5008H4.3077ZM6.40388 18.0008C7.15388 17.1957 8.00131 16.5778 8.94618 16.147C9.89103 15.7163 10.909 15.5009 12 15.5009C13.091 15.5009 14.1089 15.7163 15.0538 16.147C15.9986 16.5778 16.8461 17.1957 17.5961 18.0008H19.6923C19.7692 18.0008 19.8397 17.9688 19.9038 17.9047C19.9679 17.8406 20 17.7701 20 17.6931V6.30857C20 6.23164 19.9679 6.16111 19.9038 6.09699C19.8397 6.03289 19.7692 6.00084 19.6923 6.00084H4.3077C4.23077 6.00084 4.16024 6.03289 4.09613 6.09699C4.03202 6.16111 3.99998 6.23164 3.99998 6.30857V17.6931C3.99998 17.7701 4.03202 17.8406 4.09613 17.9047C4.16024 17.9688 4.23077 18.0008 4.3077 18.0008H6.40388ZM8.69998 18.0008H15.3C14.8166 17.6675 14.2958 17.4175 13.7375 17.2508C13.1791 17.0842 12.6 17.0008 12 17.0008C11.4 17.0008 10.8208 17.0842 10.2625 17.2508C9.70414 17.4175 9.18331 17.6675 8.69998 18.0008ZM12 12.0009C11.6525 12.0009 11.3573 11.8794 11.1144 11.6365C10.8714 11.3935 10.75 11.0983 10.75 10.7509C10.75 10.4035 10.8714 10.1083 11.1144 9.86532C11.3573 9.62235 11.6525 9.50087 12 9.50087C12.3474 9.50087 12.6426 9.62235 12.8856 9.86532C13.1285 10.1083 13.25 10.4035 13.25 10.7509C13.25 11.0983 13.1285 11.3935 12.8856 11.6365C12.6426 11.8794 12.3474 12.0009 12 12.0009Z" fill="#5C5E64"/>
</g>
</svg>
