<svg width="18" height="18" viewBox="0 0 18 18" fill="none" xmlns="http://www.w3.org/2000/svg">
<mask id="mask0_766_16469" style="mask-type:alpha" maskUnits="userSpaceOnUse" x="0" y="0" width="18" height="18">
<rect width="18" height="18" fill="#D9D9D9"/>
</mask>
<g mask="url(#mask0_766_16469)">
<path d="M6.75 13.4998C6.3375 13.4998 5.98438 13.3529 5.69063 13.0592C5.39688 12.7654 5.25 12.4123 5.25 11.9998V2.99981C5.25 2.58731 5.39688 2.23418 5.69063 1.94043C5.98438 1.64668 6.3375 1.49981 6.75 1.49981H13.5C13.9125 1.49981 14.2656 1.64668 14.5594 1.94043C14.8531 2.23418 15 2.58731 15 2.99981V11.9998C15 12.4123 14.8531 12.7654 14.5594 13.0592C14.2656 13.3529 13.9125 13.4998 13.5 13.4998H6.75ZM6.75 11.9998H13.5V2.99981H6.75V11.9998ZM3.75 16.4998C3.3375 16.4998 2.98438 16.3529 2.69063 16.0592C2.39688 15.7654 2.25 15.4123 2.25 14.9998V4.49981H3.75V14.9998H12V16.4998H3.75Z" fill="#4D4D4D"/>
</g>
</svg>
