<svg width="24" height="25" viewBox="0 0 24 25" fill="none" xmlns="http://www.w3.org/2000/svg">
<mask id="mask0_175_17532" style="mask-type:alpha" maskUnits="userSpaceOnUse" x="0" y="0" width="24" height="25">
<rect y="0.414062" width="24" height="24" fill="#D9D9D9"/>
</mask>
<g mask="url(#mask0_175_17532)">
<path d="M14.25 16.164H15.75V14.164H17.75V12.6641H15.75V10.6641H14.25V12.6641H12.25V14.164H14.25V16.164ZM4.3077 19.914C3.80257 19.914 3.375 19.739 3.025 19.389C2.675 19.039 2.5 18.6114 2.5 18.1063V6.72176C2.5 6.21663 2.675 5.78906 3.025 5.43906C3.375 5.08906 3.80257 4.91406 4.3077 4.91406H9.79803L11.798 6.91406H19.6923C20.1974 6.91406 20.625 7.08906 20.975 7.43906C21.325 7.78906 21.5 8.21663 21.5 8.72176V18.1063C21.5 18.6114 21.325 19.039 20.975 19.389C20.625 19.739 20.1974 19.914 19.6923 19.914H4.3077ZM4.3077 18.414H19.6923C19.782 18.414 19.8557 18.3852 19.9134 18.3275C19.9711 18.2698 20 18.1961 20 18.1063V8.72176C20 8.63201 19.9711 8.55829 19.9134 8.50059C19.8557 8.44289 19.782 8.41404 19.6923 8.41404H11.1846L9.1846 6.41404H4.3077C4.21795 6.41404 4.14423 6.44289 4.08653 6.50059C4.02883 6.55829 3.99998 6.63201 3.99998 6.72176V18.1063C3.99998 18.1961 4.02883 18.2698 4.08653 18.3275C4.14423 18.3852 4.21795 18.414 4.3077 18.414Z" fill="white"/>
</g>
</svg>
