<svg width="19" height="17" viewBox="0 0 19 17" fill="none" xmlns="http://www.w3.org/2000/svg">
<path d="M0.96875 15.1484V0.565063H8.88538V3.8984H17.0264V10.6933H15.7764V5.14838H8.88538V7.23173H10.7123V8.48171H8.88538V10.5651H10.7123V11.815H8.88538V13.8984H12.5393V15.1484H0.96875ZM2.21871 13.8984H4.30206V11.815H2.21871V13.8984ZM2.21871 10.5651H4.30206V8.48171H2.21871V10.5651ZM2.21871 7.23173H4.30206V5.14838H2.21871V7.23173ZM2.21871 3.8984H4.30206V1.81504H2.21871V3.8984ZM5.55204 13.8984H7.6354V11.815H5.55204V13.8984ZM5.55204 10.5651H7.6354V8.48171H5.55204V10.5651ZM5.55204 7.23173H7.6354V5.14838H5.55204V7.23173ZM5.55204 3.8984H7.6354V1.81504H5.55204V3.8984ZM15.7764 16.815V15.1484H14.1098V13.8984H15.7764V12.2317H17.0264V13.8984H18.6931V15.1484H17.0264V16.815H15.7764ZM12.5393 8.48171V7.23173H13.7892V8.48171H12.5393ZM12.5393 11.815V10.5651H13.7892V11.815H12.5393Z" fill="white"/>
</svg>
