<svg width="24" height="24" viewBox="0 0 24 24" fill="none" xmlns="http://www.w3.org/2000/svg">
<mask id="mask0_151_16157" style="mask-type:alpha" maskUnits="userSpaceOnUse" x="0" y="0" width="24" height="24">
<rect width="24" height="24" fill="#D9D9D9"/>
</mask>
<g mask="url(#mask0_151_16157)">
<path d="M12.7962 13.75L11.0269 15.5192L12.0808 16.573L15.6538 13L12.0808 9.42693L11.0269 10.4808L12.7962 12.25H8.34615V13.75H12.7962ZM4.3077 19.5C3.80257 19.5 3.375 19.325 3.025 18.975C2.675 18.625 2.5 18.1974 2.5 17.6923V6.3077C2.5 5.80257 2.675 5.375 3.025 5.025C3.375 4.675 3.80257 4.5 4.3077 4.5H9.79803L11.798 6.5H19.6923C20.1974 6.5 20.625 6.675 20.975 7.025C21.325 7.375 21.5 7.80257 21.5 8.3077V17.6923C21.5 18.1974 21.325 18.625 20.975 18.975C20.625 19.325 20.1974 19.5 19.6923 19.5H4.3077ZM4.3077 18H19.6923C19.782 18 19.8557 17.9711 19.9134 17.9134C19.9711 17.8557 20 17.782 20 17.6923V8.3077C20 8.21795 19.9711 8.14422 19.9134 8.08652C19.8557 8.02883 19.782 7.99998 19.6923 7.99998H11.1846L9.1846 5.99998H4.3077C4.21795 5.99998 4.14423 6.02882 4.08653 6.08652C4.02883 6.14423 3.99998 6.21795 3.99998 6.3077V17.6923C3.99998 17.782 4.02883 17.8557 4.08653 17.9134C4.14423 17.9711 4.21795 18 4.3077 18Z" fill="#1C1B1F"/>
</g>
</svg>
