<svg width="22" height="25" viewBox="0 0 22 25" fill="none" xmlns="http://www.w3.org/2000/svg">
<path d="M20.7132 24.3336H2.96875V1.26953H15.5837V6.44468H20.7132V24.3336Z" fill="#FCFCFC" stroke="#818181" stroke-miterlimit="10"/>
<path d="M20.6841 6.52824L15.5547 1.35666L15.8413 1L20.9981 6.15612L20.6841 6.52824Z" fill="#818181"/>
<path d="M10.8296 7.06055H1.21955C0.54601 7.06055 0 7.59282 0 8.24942V17.6177C0 18.2743 0.54601 18.8066 1.21955 18.8066H10.8296C11.5031 18.8066 12.0491 18.2743 12.0491 17.6177V8.24942C12.0491 7.59282 11.5031 7.06055 10.8296 7.06055Z" fill="#107C42"/>
<path d="M9.20186 16.8008H7.59633L2.84375 9.06836H4.4816L9.20186 16.8008Z" fill="white"/>
<path d="M2.84375 16.8008H4.44929L9.20186 9.06836H7.56401L2.84375 16.8008Z" fill="white"/>
<path d="M15.5822 10.0645H12.6797V11.3193H15.5822V10.0645Z" fill="white"/>
<path d="M19.1681 10.0645H16.2656V11.3193H19.1681V10.0645Z" fill="#33C481"/>
<path d="M15.5822 11.9609H12.6797V13.2158H15.5822V11.9609Z" fill="#107C42"/>
<path d="M19.1681 11.9609H16.2656V13.2158H19.1681V11.9609Z" fill="white"/>
<path d="M15.5822 13.8555H12.6797V15.1103H15.5822V13.8555Z" fill="#195D38"/>
<path d="M19.1681 13.8555H16.2656V15.1103H19.1681V13.8555Z" fill="#104B2B"/>
</svg>
