<svg width="24" height="24" viewBox="0 0 24 24" fill="none" xmlns="http://www.w3.org/2000/svg">
<mask id="mask0_1188_11210" style="mask-type:alpha" maskUnits="userSpaceOnUse" x="0" y="0" width="24" height="24">
<rect width="24" height="24" fill="#D9D9D9"/>
</mask>
<g mask="url(#mask0_1188_11210)">
<path d="M18 12.8847L19.5 14.3847V19.6924C19.5 20.1975 19.325 20.6251 18.975 20.9751C18.625 21.3251 18.1974 21.5001 17.6923 21.5001H4.3077C3.80257 21.5001 3.375 21.3251 3.025 20.9751C2.675 20.6251 2.5 20.1975 2.5 19.6924V6.30784C2.5 5.80271 2.675 5.37514 3.025 5.02514C3.375 4.67514 3.80257 4.50014 4.3077 4.50014H9.74038C9.64551 4.74246 9.57596 4.98958 9.53172 5.24149C9.48749 5.49341 9.45192 5.74628 9.425 6.00012H4.3077C4.23077 6.00012 4.16024 6.03217 4.09612 6.09627C4.03202 6.16038 3.99998 6.23091 3.99998 6.30784V19.6924C3.99998 19.7693 4.03202 19.8398 4.09612 19.904C4.16024 19.9681 4.23077 20.0001 4.3077 20.0001H17.6923C17.7692 20.0001 17.8397 19.9681 17.9038 19.904C17.9679 19.8398 18 19.7693 18 19.6924V12.8847ZM18.8769 8.82319L22.1346 12.0809L21.0808 13.1347L17.8231 9.87702C17.4987 10.1091 17.1381 10.2902 16.7413 10.4203C16.3445 10.5504 15.9307 10.6155 15.5 10.6155C14.3525 10.6155 13.3798 10.2164 12.5817 9.41837C11.7837 8.6203 11.3846 7.64755 11.3846 6.50012C11.3846 5.35268 11.7837 4.37993 12.5817 3.58187C13.3798 2.7838 14.3525 2.38477 15.5 2.38477C16.6474 2.38477 17.6202 2.7838 18.4182 3.58187C19.2163 4.37993 19.6153 5.35268 19.6153 6.50012C19.6153 6.95012 19.5471 7.36871 19.4105 7.75589C19.274 8.14306 19.0961 8.49882 18.8769 8.82319ZM15.5 9.11552C16.232 9.11552 16.8509 8.86262 17.3567 8.35684C17.8625 7.85107 18.1154 7.23217 18.1154 6.50012C18.1154 5.76807 17.8625 5.14916 17.3567 4.64339C16.8509 4.13761 16.232 3.88472 15.5 3.88472C14.7679 3.88472 14.149 4.13761 13.6433 4.64339C13.1375 5.14916 12.8846 5.76807 12.8846 6.50012C12.8846 7.23217 13.1375 7.85107 13.6433 8.35684C14.149 8.86262 14.7679 9.11552 15.5 9.11552ZM3.99998 20.0001V6.00012V12.6155V12.3251V20.0001Z" fill="#98A2B3"/>
</g>
</svg>
