<svg width="24" height="24" viewBox="0 0 24 24" fill="none" xmlns="http://www.w3.org/2000/svg">
<mask id="mask0_759_29957" style="mask-type:alpha" maskUnits="userSpaceOnUse" x="0" y="0" width="24" height="24">
<rect width="24" height="24" fill="#D9D9D9"/>
</mask>
<g mask="url(#mask0_759_29957)">
<path d="M11.3857 19.5C11.1345 19.5 10.9242 19.4153 10.755 19.2461C10.5857 19.0769 10.5011 18.8666 10.5011 18.6153V12.8269L4.90306 5.71538C4.71076 5.45896 4.68288 5.19229 4.81941 4.91538C4.95594 4.63846 5.18638 4.5 5.51073 4.5H18.4914C18.8158 4.5 19.0462 4.63846 19.1828 4.91538C19.3193 5.19229 19.2914 5.45896 19.0991 5.71538L13.5011 12.8269V18.6153C13.5011 18.8666 13.4164 19.0769 13.2472 19.2461C13.078 19.4153 12.8677 19.5 12.6164 19.5H11.3857ZM12.0011 12.3L16.9511 5.99998H7.05108L12.0011 12.3Z" fill="#4D4D4D"/>
</g>
</svg>
