<svg width="24" height="24" viewBox="0 0 24 24" fill="none" xmlns="http://www.w3.org/2000/svg">
<mask id="mask0_1188_10698" style="mask-type:alpha" maskUnits="userSpaceOnUse" x="0" y="0" width="24" height="24">
<rect width="24" height="24" fill="#D9D9D9"/>
</mask>
<g mask="url(#mask0_1188_10698)">
<path d="M3.99998 18V5.99998V10.3673V9.99998V18ZM4.3077 19.5C3.80257 19.5 3.375 19.325 3.025 18.975C2.675 18.625 2.5 18.1974 2.5 17.6923V6.3077C2.5 5.80257 2.675 5.375 3.025 5.025C3.375 4.675 3.80257 4.5 4.3077 4.5H9.79803L11.798 6.5H19.6923C20.1974 6.5 20.625 6.675 20.975 7.025C21.325 7.375 21.5 7.80257 21.5 8.3077V11.0923C21.2705 10.9333 21.0323 10.7955 20.7855 10.6788C20.5387 10.5622 20.2769 10.4583 20 10.3673V8.3077C20 8.21795 19.9711 8.14422 19.9134 8.08652C19.8557 8.02883 19.782 7.99998 19.6923 7.99998H11.1846L9.1846 5.99998H4.3077C4.21795 5.99998 4.14423 6.02882 4.08653 6.08652C4.02883 6.14423 3.99998 6.21795 3.99998 6.3077V17.6923C3.99998 17.782 4.02883 17.8557 4.08653 17.9134C4.14423 17.9711 4.21795 18 4.3077 18H11.2192C11.2628 18.2666 11.3243 18.5234 11.4038 18.7702C11.4833 19.0169 11.5788 19.2602 11.6904 19.5H4.3077ZM14.1923 19.5V19.1423C14.1923 18.4756 14.5205 17.9519 15.1769 17.5711C15.8333 17.1904 16.723 17 17.8461 17C18.9692 17 19.8589 17.1904 20.5153 17.5711C21.1717 17.9519 21.5 18.4756 21.5 19.1423V19.5H14.1923ZM17.8461 15.6923C17.3602 15.6923 16.9471 15.5221 16.6067 15.1817C16.2663 14.8413 16.0961 14.4282 16.0961 13.9423C16.0961 13.4564 16.2663 13.0433 16.6067 12.7029C16.9471 12.3625 17.3602 12.1923 17.8461 12.1923C18.332 12.1923 18.7451 12.3625 19.0855 12.7029C19.4259 13.0433 19.5961 13.4564 19.5961 13.9423C19.5961 14.4282 19.4259 14.8413 19.0855 15.1817C18.7451 15.5221 18.332 15.6923 17.8461 15.6923Z" fill="#5C5E64"/>
</g>
</svg>
