<svg width="20" height="20" viewBox="0 0 20 20" fill="none" xmlns="http://www.w3.org/2000/svg">
<mask id="mask0_1188_11598" style="mask-type:alpha" maskUnits="userSpaceOnUse" x="0" y="0" width="20" height="20">
<rect width="20" height="20" fill="#D9D9D9"/>
</mask>
<g mask="url(#mask0_1188_11598)">
<path d="M3.75772 15.5826C3.39233 15.5826 3.07769 15.4507 2.8138 15.1868C2.54991 14.9229 2.41797 14.6083 2.41797 14.2429V5.75577C2.41797 5.38066 2.54991 5.06359 2.8138 4.80456C3.07769 4.54553 3.39233 4.41602 3.75772 4.41602H7.83299L9.83299 6.41602H16.2448C16.62 6.41602 16.937 6.54553 17.1961 6.80456C17.4551 7.06359 17.5846 7.38066 17.5846 7.75577V14.2429C17.5846 14.6083 17.4551 14.9229 17.1961 15.1868C16.937 15.4507 16.62 15.5826 16.2448 15.5826H3.75772ZM3.75772 14.4993H16.2448C16.3196 14.4993 16.3811 14.4753 16.4292 14.4272C16.4772 14.3791 16.5013 14.3177 16.5013 14.2429V7.75577C16.5013 7.68097 16.4772 7.61954 16.4292 7.57145C16.3811 7.52337 16.3196 7.49933 16.2448 7.49933H9.3843L7.3843 5.49933H3.75772C3.68293 5.49933 3.62149 5.52337 3.57341 5.57145C3.52532 5.61954 3.50128 5.68097 3.50128 5.75577V14.2429C3.50128 14.3177 3.52532 14.3791 3.57341 14.4272C3.62149 14.4753 3.68293 14.4993 3.75772 14.4993Z" fill="#1C1B1F"/>
</g>
</svg>
