<svg width="24" height="24" viewBox="0 0 24 24" fill="none" xmlns="http://www.w3.org/2000/svg">
<path fill-rule="evenodd" clip-rule="evenodd" d="M23.52 12.2736C23.52 11.4227 23.4436 10.6045 23.3018 9.81909H12V14.4609H18.4582C18.18 15.9609 17.3345 17.2318 16.0636 18.0827V21.0936H19.9418C22.2109 19.0045 23.52 15.9282 23.52 12.2736Z" fill="#4285F4"/>
<path fill-rule="evenodd" clip-rule="evenodd" d="M12.001 24.001C15.241 24.001 17.9573 22.9265 19.9428 21.0937L16.0646 18.0828C14.9901 18.8028 13.6155 19.2283 12.001 19.2283C8.87553 19.2283 6.23007 17.1174 5.28643 14.281H1.27734V17.3901C3.25189 21.3119 7.31007 24.001 12.001 24.001Z" fill="#34A853"/>
<path fill-rule="evenodd" clip-rule="evenodd" d="M5.28545 14.2809C5.04545 13.5609 4.90909 12.7918 4.90909 12.0009C4.90909 11.21 5.04545 10.4409 5.28545 9.72091V6.61182H1.27636C0.463636 8.23182 0 10.0645 0 12.0009C0 13.9373 0.463636 15.77 1.27636 17.39L5.28545 14.2809Z" fill="#FBBC05"/>
<path fill-rule="evenodd" clip-rule="evenodd" d="M12.001 4.7737C13.7628 4.7737 15.3446 5.37916 16.5883 6.56825L20.0301 3.12643C17.9519 1.19007 15.2355 0.000976562 12.001 0.000976562C7.31007 0.000976562 3.25189 2.69007 1.27734 6.61189L5.28643 9.72098C6.23007 6.88461 8.87553 4.7737 12.001 4.7737Z" fill="#EA4335"/>
</svg>
