<svg width="22" height="22" viewBox="0 0 22 22" fill="none" xmlns="http://www.w3.org/2000/svg">
<mask id="mask0_1188_12526" style="mask-type:alpha" maskUnits="userSpaceOnUse" x="0" y="0" width="22" height="22">
<rect width="22" height="22" fill="#D9D9D9"/>
</mask>
<g mask="url(#mask0_1188_12526)">
<path d="M11.5481 10.6715C11.9383 10.2473 12.2268 9.76018 12.4136 9.2102C12.6005 8.6602 12.6939 8.09316 12.6939 7.50909C12.6939 6.92502 12.6005 6.35799 12.4136 5.80799C12.2268 5.25799 11.9383 4.77086 11.5481 4.34661C12.3531 4.43946 13.0215 4.78703 13.5533 5.38932C14.0851 5.9916 14.351 6.69819 14.351 7.50909C14.351 8.31998 14.0851 9.02657 13.5533 9.62886C13.0215 10.2312 12.3531 10.5787 11.5481 10.6715ZM16.3606 17.6981V15.5475C16.3606 15.0478 16.259 14.5724 16.0556 14.1212C15.8523 13.6701 15.5638 13.2829 15.1901 12.9597C15.8929 13.1936 16.5398 13.5091 17.131 13.9064C17.7221 14.3036 18.0176 14.8506 18.0176 15.5475V17.6981H16.3606ZM18.0176 11.6869V9.85361H16.1843V8.47865H18.0176V6.64532H19.3926V8.47865H21.2259V9.85361H19.3926V11.6869H18.0176ZM7.6523 10.7174C6.77002 10.7174 6.01473 10.4032 5.38644 9.77495C4.75815 9.14666 4.44401 8.39137 4.44401 7.50909C4.44401 6.6268 4.75815 5.87151 5.38644 5.24323C6.01473 4.61493 6.77002 4.30078 7.6523 4.30078C8.53459 4.30078 9.28988 4.61493 9.91816 5.24323C10.5465 5.87151 10.8606 6.6268 10.8606 7.50909C10.8606 8.39137 10.5465 9.14666 9.91816 9.77495C9.28988 10.4032 8.53459 10.7174 7.6523 10.7174ZM0.777344 17.6981V15.6603C0.777344 15.2114 0.899268 14.7957 1.14312 14.4132C1.38698 14.0306 1.71281 13.7366 2.1206 13.5309C3.02668 13.0866 3.9407 12.7535 4.86265 12.5314C5.78461 12.3093 6.71449 12.1982 7.6523 12.1982C8.59011 12.1982 9.51999 12.3093 10.4419 12.5314C11.3639 12.7535 12.2779 13.0866 13.184 13.5309C13.5918 13.7366 13.9176 14.0306 14.1615 14.4132C14.4053 14.7957 14.5273 15.2114 14.5273 15.6603V17.6981H0.777344ZM7.6523 9.34243C8.15646 9.34243 8.58806 9.16291 8.94709 8.80388C9.30612 8.44486 9.48563 8.01326 9.48563 7.50909C9.48563 7.00493 9.30612 6.57333 8.94709 6.2143C8.58806 5.85527 8.15646 5.67576 7.6523 5.67576C7.14813 5.67576 6.71653 5.85527 6.35751 6.2143C5.99848 6.57333 5.81896 7.00493 5.81896 7.50909C5.81896 8.01326 5.99848 8.44486 6.35751 8.80388C6.71653 9.16291 7.14813 9.34243 7.6523 9.34243ZM2.1523 16.3232H13.1523V15.6603C13.1523 15.4747 13.0985 15.3028 12.991 15.1447C12.8835 14.9867 12.7374 14.8577 12.5529 14.7578C11.7632 14.3688 10.9579 14.0741 10.1371 13.8737C9.31631 13.6733 8.48804 13.5732 7.6523 13.5732C6.81657 13.5732 5.9883 13.6733 5.16749 13.8737C4.34669 14.0741 3.54141 14.3688 2.75166 14.7578C2.56715 14.8577 2.42113 14.9867 2.31361 15.1447C2.20607 15.3028 2.1523 15.4747 2.1523 15.6603V16.3232Z" fill="#4D4D4D"/>
</g>
</svg>
