<svg width="20" height="20" viewBox="0 0 20 20" fill="none" xmlns="http://www.w3.org/2000/svg">
<mask id="mask0_1188_11535" style="mask-type:alpha" maskUnits="userSpaceOnUse" x="0" y="0" width="20" height="20">
<rect width="20" height="20" fill="#D9D9D9"/>
</mask>
<g mask="url(#mask0_1188_11535)">
<path d="M5.35205 16.3276L3.48828 8.16097H16.5107L14.6469 16.3276H5.35205ZM6.2078 15.2443H13.7911L15.1245 9.24427H4.87447L6.2078 15.2443ZM8.74947 12.0359H11.2495C11.4029 12.0359 11.5316 11.9844 11.6354 11.8814C11.7392 11.7783 11.7911 11.6507 11.7911 11.4984C11.7911 11.3461 11.7392 11.217 11.6354 11.1113C11.5316 11.0055 11.4029 10.9526 11.2495 10.9526H8.74947C8.596 10.9526 8.46736 11.0041 8.36355 11.1072C8.25973 11.2102 8.20782 11.3379 8.20782 11.4902C8.20782 11.6425 8.25973 11.7715 8.36355 11.8773C8.46736 11.9831 8.596 12.0359 8.74947 12.0359ZM4.74947 7.0007C4.596 7.0007 4.46736 6.94919 4.36355 6.84616C4.25973 6.74313 4.20782 6.61547 4.20782 6.46316C4.20782 6.31086 4.25973 6.18182 4.36355 6.07606C4.46736 5.97028 4.596 5.91739 4.74947 5.91739H15.2495C15.4029 5.91739 15.5316 5.96891 15.6354 6.07195C15.7392 6.17498 15.7911 6.30265 15.7911 6.45495C15.7911 6.60726 15.7392 6.73629 15.6354 6.84206C15.5316 6.94782 15.4029 7.0007 15.2495 7.0007H4.74947ZM6.74947 4.75714C6.596 4.75714 6.46736 4.70563 6.36355 4.6026C6.25973 4.49956 6.20782 4.37188 6.20782 4.21958C6.20782 4.06727 6.25973 3.93824 6.36355 3.83247C6.46736 3.72671 6.596 3.67383 6.74947 3.67383H13.2495C13.4029 3.67383 13.5316 3.72534 13.6354 3.82837C13.7392 3.9314 13.7911 4.05906 13.7911 4.21137C13.7911 4.36368 13.7392 4.49271 13.6354 4.59847C13.5316 4.70425 13.4029 4.75714 13.2495 4.75714H6.74947Z" fill="#1C1B1F"/>
</g>
</svg>
