<svg width="24" height="24" viewBox="0 0 24 24" fill="none" xmlns="http://www.w3.org/2000/svg">
<mask id="mask0_1022_39070" style="mask-type:alpha" maskUnits="userSpaceOnUse" x="0" y="0" width="24" height="24">
<rect width="24" height="24" fill="#D9D9D9"/>
</mask>
<g mask="url(#mask0_1022_39070)">
<path d="M5.3077 21.5C4.80898 21.5 4.38303 21.3233 4.02983 20.9701C3.67661 20.6169 3.5 20.191 3.5 19.6923V8.4942C3.20642 8.34292 2.96636 8.12785 2.77983 7.849C2.59328 7.57015 2.5 7.24868 2.5 6.88458V4.3077C2.5 3.80898 2.67661 3.38302 3.02983 3.02982C3.38303 2.67661 3.80898 2.5 4.3077 2.5H19.6923C20.191 2.5 20.6169 2.67661 20.9701 3.02982C21.3233 3.38302 21.5 3.80898 21.5 4.3077V6.88458C21.5 7.24868 21.4067 7.57015 21.2201 7.849C21.0336 8.12785 20.7935 8.34292 20.5 8.4942V19.6923C20.5 20.191 20.3233 20.6169 19.9701 20.9701C19.6169 21.3233 19.191 21.5 18.6923 21.5H5.3077ZM4.99998 8.69225V19.6442C4.99998 19.7467 5.03683 19.8317 5.11055 19.899C5.18428 19.9663 5.27564 20 5.38463 20H18.6923C18.782 20 18.8557 19.9711 18.9134 19.9134C18.9711 19.8557 19 19.782 19 19.6923V8.69225H4.99998ZM4.3077 7.1923H19.6923C19.782 7.1923 19.8557 7.16345 19.9134 7.10575C19.9711 7.04805 20 6.97433 20 6.88458V4.3077C20 4.21795 19.9711 4.14423 19.9134 4.08653C19.8557 4.02883 19.782 3.99998 19.6923 3.99998H4.3077C4.21795 3.99998 4.14423 4.02883 4.08653 4.08653C4.02883 4.14423 3.99998 4.21795 3.99998 4.3077V6.88458C3.99998 6.97433 4.02883 7.04805 4.08653 7.10575C4.14423 7.16345 4.21795 7.1923 4.3077 7.1923ZM9.1923 13.4326H14.8077V12H9.1923V13.4326Z" fill="#1C1B1F"/>
</g>
</svg>
