<svg width="24" height="24" viewBox="0 0 24 24" fill="none" xmlns="http://www.w3.org/2000/svg">
<path d="M17.1562 15.875C17.125 15.875 17.125 15.875 17.0938 15.9062C16.75 15.9688 16.4062 16 16.0625 16C13.0938 16 10.625 13.5938 10.625 10.5C10.625 8.53125 11.6562 6.71875 13.375 5.75C13.6562 5.59375 13.5938 5.1875 13.2812 5.125C12.9375 5.0625 12.375 5 12 5C8.125 5 5 8.15625 5 12C5 15.875 8.125 19 11.9688 19C14.125 19 16.0938 18.0312 17.4062 16.4375C17.5938 16.1875 17.4062 15.875 17.1562 15.875ZM11.9688 17.5C8.9375 17.5 6.5 15.0312 6.5 12C6.5 9.625 8 7.59375 10.125 6.84375C9.46875 7.90625 9.09375 9.1875 9.09375 10.5C9.09375 13.625 11.125 16.25 13.9375 17.1562C13.3125 17.4062 12.6562 17.5 11.9688 17.5Z" fill="#323B4B"/>
</svg>
