<svg width="16" height="16" viewBox="0 0 16 16" fill="none" xmlns="http://www.w3.org/2000/svg">
<path d="M1.61538 16C1.15513 16 0.770833 15.8458 0.4625 15.5375C0.154167 15.2292 0 14.8449 0 14.3846V1.61537C0 1.15512 0.154167 0.770833 0.4625 0.4625C0.770833 0.154167 1.15513 0 1.61538 0H6.61538V1H1.61538C1.46154 1 1.32052 1.0641 1.1923 1.1923C1.0641 1.32052 1 1.46154 1 1.61537V14.3846C1 14.5385 1.0641 14.6795 1.1923 14.8077C1.32052 14.9359 1.46154 15 1.61538 15H14.3846C14.5385 15 14.6795 14.9359 14.8077 14.8077C14.9359 14.6795 15 14.5385 15 14.3846V9.38463H16V14.3846C16 14.8449 15.8458 15.2292 15.5375 15.5375C15.2292 15.8458 14.8449 16 14.3846 16H1.61538ZM12 7V4H9V3H12V0H13V3H16V4H13V7H12Z" fill="#4D4D4D"/>
</svg>
