<svg width="24" height="24" viewBox="0 0 24 24" fill="none" xmlns="http://www.w3.org/2000/svg">
<mask id="mask0_1188_12774" style="mask-type:alpha" maskUnits="userSpaceOnUse" x="0" y="0" width="24" height="24">
<rect width="24" height="24" fill="#D9D9D9"/>
</mask>
<g mask="url(#mask0_1188_12774)">
<path d="M7.50163 19.6919V9.29198C7.50163 8.79326 7.6808 8.36987 8.03913 8.0218C8.39746 7.67372 8.82599 7.49968 9.32471 7.49968H19.6939C20.1926 7.49968 20.6186 7.67629 20.9718 8.0295C21.325 8.3827 21.5016 8.80866 21.5016 9.30738V16.7881L16.7901 21.4996H9.30933C8.81061 21.4996 8.38466 21.323 8.03146 20.9698C7.67824 20.6166 7.50163 20.1906 7.50163 19.6919ZM2.52663 6.42275C2.43305 5.92404 2.53016 5.47468 2.81798 5.07468C3.1058 4.67468 3.49906 4.42789 3.99778 4.3343L14.2324 2.52468C14.7311 2.43109 15.1804 2.52821 15.5804 2.81603C15.9804 3.10385 16.2272 3.49711 16.3208 3.99583L16.5516 5.30738H15.0208L14.8266 4.2112C14.8138 4.14069 14.7753 4.0846 14.7112 4.04293C14.6471 4.00126 14.5766 3.98684 14.4997 3.99965L4.26123 5.81888C4.17148 5.83169 4.10417 5.87336 4.05931 5.94388C4.01442 6.01439 3.9984 6.09453 4.01123 6.18428L5.30933 13.5171V17.9727C5.0619 17.8419 4.85036 17.6628 4.67471 17.4352C4.49907 17.2076 4.38626 16.9483 4.33626 16.6573L2.52663 6.42275ZM9.00161 9.30738V19.6919C9.00161 19.7817 9.03046 19.8554 9.08816 19.9131C9.14586 19.9708 9.21958 19.9997 9.30933 19.9997H16.0016V15.9997H20.0016V9.30738C20.0016 9.21763 19.9728 9.1439 19.9151 9.0862C19.8574 9.0285 19.7836 8.99965 19.6939 8.99965H9.30933C9.21958 8.99965 9.14586 9.0285 9.08816 9.0862C9.03046 9.1439 9.00161 9.21763 9.00161 9.30738Z" fill="#5C5E64"/>
</g>
</svg>
