<svg width="24" height="24" viewBox="0 0 24 24" fill="none" xmlns="http://www.w3.org/2000/svg">
<mask id="mask0_1188_6114" style="mask-type:alpha" maskUnits="userSpaceOnUse" x="0" y="0" width="24" height="24">
<rect width="24" height="24" fill="#D9D9D9"/>
</mask>
<g mask="url(#mask0_1188_6114)">
<path d="M3.23047 9.82693C3.23047 8.54488 3.48592 7.35224 3.99682 6.24903C4.50772 5.14583 5.20228 4.19358 6.08049 3.3923L6.75549 4.12693C5.97344 4.83461 5.35709 5.67628 4.90644 6.65193C4.45581 7.62756 4.23049 8.68589 4.23049 9.82693H3.23047ZM19.7689 9.82693C19.7689 8.68589 19.5436 7.62435 19.093 6.6423C18.6423 5.66025 18.026 4.81538 17.2439 4.1077L17.9189 3.3923C18.7972 4.19358 19.4917 5.14583 20.0026 6.24903C20.5135 7.35224 20.769 8.54488 20.769 9.82693H19.7689ZM4.99972 18.7692V17.7692H6.61509V9.84615C6.61509 8.53975 7.02856 7.39072 7.85549 6.39905C8.68241 5.40737 9.73049 4.78973 10.9997 4.54615V4C10.9997 3.72435 11.0975 3.48878 11.293 3.29328C11.4885 3.09776 11.7241 3 11.9997 3C12.2754 3 12.5109 3.09776 12.7064 3.29328C12.902 3.48878 12.9997 3.72435 12.9997 4V4.54615C14.269 4.78973 15.317 5.40737 16.1439 6.39905C16.9709 7.39072 17.3843 8.53975 17.3843 9.84615V17.7692H18.9997V18.7692H4.99972ZM11.9997 21.3846C11.5523 21.3846 11.1712 21.2273 10.8564 20.9125C10.5417 20.5978 10.3843 20.2167 10.3843 19.7692H13.6151C13.6151 20.2167 13.4577 20.5978 13.143 20.9125C12.8282 21.2273 12.4472 21.3846 11.9997 21.3846ZM7.61509 17.7692H16.3843V9.84615C16.3843 8.63077 15.9574 7.59615 15.1036 6.7423C14.2497 5.88847 13.2151 5.46155 11.9997 5.46155C10.7843 5.46155 9.74972 5.88847 8.89587 6.7423C8.04202 7.59615 7.61509 8.63077 7.61509 9.84615V17.7692Z" fill="#757575"/>
<circle cx="17" cy="18" r="5" fill="#F44A4A" stroke="white" stroke-width="2"/>
</g>
</svg>
