<svg width="24" height="24" viewBox="0 0 24 24" fill="none" xmlns="http://www.w3.org/2000/svg">
<path d="M13.5 13.5H10.5C7.4375 13.5 5 15.9688 5 19C5 19.5625 5.4375 20 6 20H18C18.5312 20 19 19.5625 19 19C19 15.9688 16.5312 13.5 13.5 13.5ZM6.5 18.5C6.75 16.5312 8.4375 15 10.5 15H13.5C15.5312 15 17.2188 16.5312 17.4688 18.5H6.5ZM12 12C14.1875 12 16 10.2188 16 8C16 5.8125 14.1875 4 12 4C9.78125 4 8 5.8125 8 8C8 10.2188 9.78125 12 12 12ZM12 5.5C13.375 5.5 14.5 6.625 14.5 8C14.5 9.40625 13.375 10.5 12 10.5C10.5938 10.5 9.5 9.40625 9.5 8C9.5 6.625 10.5938 5.5 12 5.5Z" fill="#323B4B"/>
</svg>
