<svg width="20" height="20" viewBox="0 0 20 20" fill="none" xmlns="http://www.w3.org/2000/svg">
<g clip-path="url(#clip0_1188_12770)">
<path fill-rule="evenodd" clip-rule="evenodd" d="M9.9987 6.66732C9.11464 6.66732 8.2668 7.01851 7.64167 7.64363C7.01655 8.26875 6.66536 9.1166 6.66536 10.0007C6.66536 10.8847 7.01655 11.7326 7.64167 12.3577C8.2668 12.9828 9.11464 13.334 9.9987 13.334C10.8828 13.334 11.7306 12.9828 12.3557 12.3577C12.9808 11.7326 13.332 10.8847 13.332 10.0007C13.332 9.1166 12.9808 8.26875 12.3557 7.64363C11.7306 7.01851 10.8828 6.66732 9.9987 6.66732ZM8.82019 8.82214C9.13275 8.50958 9.55667 8.33398 9.9987 8.33398C10.4407 8.33398 10.8646 8.50958 11.1772 8.82214C11.4898 9.1347 11.6654 9.55862 11.6654 10.0007C11.6654 10.4427 11.4898 10.8666 11.1772 11.1792C10.8646 11.4917 10.4407 11.6673 9.9987 11.6673C9.55667 11.6673 9.13275 11.4917 8.82019 11.1792C8.50763 10.8666 8.33203 10.4427 8.33203 10.0007C8.33203 9.55862 8.50763 9.1347 8.82019 8.82214Z" fill="#5C5E64"/>
<path fill-rule="evenodd" clip-rule="evenodd" d="M9.14953 0.833984C8.77099 0.833984 8.44001 1.08912 8.34365 1.45519L7.92135 3.05952L6.57965 3.62512L5.55261 2.71139C5.22285 2.41801 4.72154 2.43263 4.40944 2.74473L2.74278 4.4114C2.44086 4.71331 2.41598 5.19459 2.68517 5.52602L3.58528 6.63428L3.03331 7.99221L1.47591 8.35581C1.0988 8.44385 0.832031 8.78007 0.832031 9.16732V10.834C0.832031 11.2098 1.08352 11.539 1.44604 11.6379L3.05578 12.0771L3.6229 13.4224L2.71008 14.446C2.41607 14.7757 2.43041 15.2775 2.74278 15.5899L4.40944 17.2566C4.71177 17.5589 5.19384 17.5834 5.52524 17.3132L6.6331 16.4101L7.95766 16.955L8.35739 18.538C8.45083 18.908 8.78371 19.1673 9.16536 19.1673H10.832C11.2135 19.1673 11.5463 18.9083 11.6399 18.5384L12.0406 16.9547L13.4095 16.3877C13.5473 16.5032 13.7053 16.6389 13.8625 16.7758C14.0187 16.9118 14.1639 17.04 14.2702 17.1343C14.3232 17.1814 14.3664 17.2199 14.3963 17.2466L14.4416 17.287C14.7711 17.5827 15.2749 17.5696 15.588 17.2566L17.2546 15.5899C17.5613 15.2832 17.5815 14.7925 17.3009 14.4617L16.3932 13.3912L16.9549 12.0345L18.5416 11.6222C18.9089 11.5268 19.1654 11.1952 19.1654 10.8156V9.16732C19.1654 8.78622 18.9068 8.45368 18.5375 8.35971L16.9606 7.95852L16.4003 6.6051L17.3018 5.53861C17.5815 5.20773 17.561 4.71774 17.2546 4.4114L15.588 2.74473C15.2804 2.43713 14.7879 2.41788 14.4572 2.70052L13.3986 3.60538L11.9975 3.02931L11.5838 1.45546C11.4876 1.08926 11.1565 0.833984 10.7779 0.833984H9.14953ZM15.5333 14.9542L14.9632 15.5243L14.957 15.5188C14.6492 15.2509 14.2528 14.9118 14.0292 14.7519C13.7952 14.5846 13.4914 14.5498 13.2256 14.6599L11.0165 15.5749C10.7733 15.6756 10.5921 15.8853 10.5275 16.1404L10.1833 17.5006H9.81443L9.47084 16.14C9.40619 15.884 9.22406 15.6738 8.97989 15.5733L6.80822 14.68C6.52544 14.5637 6.20166 14.6115 5.96466 14.8047L5.05565 15.5458L4.47779 14.9679L5.21732 14.1386C5.43141 13.8985 5.48821 13.5567 5.36326 13.2603L4.43409 11.0561C4.33468 10.8203 4.13242 10.6432 3.88552 10.5759L2.4987 10.1975V9.82851L3.83232 9.51716C4.09578 9.45566 4.31299 9.27008 4.41486 9.01945L5.31486 6.80528C5.42933 6.52367 5.38137 6.20207 5.18973 5.96611L4.45263 5.05856L5.0321 4.47909L5.86479 5.21992C6.10485 5.43349 6.44632 5.49002 6.7424 5.36521L8.94657 4.43604C9.1848 4.33562 9.36294 4.1303 9.42875 3.88028L9.7919 2.50065H10.1353L10.4911 3.85418C10.5575 4.10682 10.7385 4.31371 10.9801 4.41305L13.236 5.34055C13.5252 5.45946 13.8566 5.40645 14.0943 5.20328L14.9544 4.46815L15.5342 5.04799L14.7998 5.91686C14.5985 6.15496 14.547 6.48549 14.6662 6.77355L15.5804 8.98189C15.6809 9.22475 15.8902 9.40595 16.1449 9.47076L17.4987 9.81518V10.1712L16.1341 10.5258C15.8812 10.5915 15.6737 10.7721 15.5737 11.0135L14.6587 13.2235C14.5393 13.512 14.5912 13.8431 14.7931 14.0813L15.5333 14.9542Z" fill="#5C5E64"/>
</g>
<defs>
<clipPath id="clip0_1188_12770">
<rect width="20" height="20" fill="white"/>
</clipPath>
</defs>
</svg>
