<svg width="199" height="26" viewBox="0 0 199 26" fill="none" xmlns="http://www.w3.org/2000/svg">
<path d="M11.0312 6.625V25H4.98438V6.625H0.3125V1.3125H15.6719V6.625H11.0312ZM41.5938 16.1406C40.9062 18.9219 39.4531 21.1719 37.2344 22.8906C35.0365 24.599 32.5 25.4531 29.625 25.4531C26.1667 25.4531 23.224 24.2656 20.7969 21.8906C18.3594 19.5052 17.1406 16.5833 17.1406 13.125C17.1406 9.67708 18.349 6.76562 20.7656 4.39062C23.1719 2.04688 26.1042 0.875 29.5625 0.875C34.0625 0.875 37.5365 2.72917 39.9844 6.4375C40.8385 7.71875 41.375 9.01042 41.5938 10.3125H35.25C34.1979 7.5625 32.2917 6.1875 29.5312 6.1875C27.6667 6.1875 26.1302 6.88021 24.9219 8.26562C23.7656 9.59896 23.1875 11.2083 23.1875 13.0938C23.1875 15 23.7656 16.6302 24.9219 17.9844C26.1406 19.4219 27.6875 20.1406 29.5625 20.1406C32.1458 20.1406 34.0417 18.8073 35.25 16.1406H41.5938Z" fill="#E07E27"/>
<path d="M71.2208 6.28L67.8608 8.008C67.0928 6.728 64.9808 5.512 62.5488 5.512C59.4128 5.512 57.9088 6.824 57.9088 8.488C57.9088 10.44 60.2128 10.984 62.9008 11.304C67.5728 11.88 71.9248 13.096 71.9248 18.44C71.9248 23.432 67.5088 25.576 62.5168 25.576C57.9408 25.576 54.4208 24.168 52.7568 20.072L56.2768 18.248C57.2688 20.712 59.8608 21.8 62.5808 21.8C65.2368 21.8 67.7328 20.872 67.7328 18.44C67.7328 16.328 65.5248 15.464 62.5488 15.144C57.9728 14.6 53.7488 13.384 53.7488 8.36C53.7488 3.752 58.2928 1.864 62.4208 1.832C65.9088 1.832 69.5248 2.824 71.2208 6.28ZM82.954 8.904C87.978 8.904 91.21 12.616 91.21 17.128C91.21 21.672 88.106 25.352 82.986 25.352C77.866 25.352 74.794 21.672 74.794 17.128C74.794 12.616 77.93 8.904 82.954 8.904ZM82.986 12.456C80.17 12.456 78.698 14.76 78.698 17.128C78.698 19.528 80.138 21.768 82.986 21.768C85.834 21.768 87.274 19.528 87.274 17.128C87.274 14.76 85.61 12.456 82.986 12.456ZM99.089 25H95.185V12.872H92.241V9.448H95.185V8.392C95.185 4.168 98.033 2.216 101.201 2.216C102.577 2.216 104.017 2.664 105.297 3.496L103.857 6.408C103.025 5.864 102.257 5.576 101.457 5.576C100.113 5.576 99.089 6.472 99.089 8.392V9.448H103.729V12.872H99.089V25ZM108.411 5.192L112.315 4.776V9.256H116.667V12.616H112.283V19.432C112.283 20.936 113.115 21.672 114.331 21.672C114.939 21.672 115.643 21.48 116.219 21.192L117.307 24.52C116.187 24.968 115.259 25.16 114.075 25.192C110.651 25.32 108.411 23.368 108.411 19.432V12.616H105.467V9.256H108.411V5.192ZM130.665 9.192H134.089L137.545 21.064L141.161 9.192H145.481L139.977 25.064H135.433L133.801 20.392L132.393 15.112L130.985 20.392L129.353 25.064H124.809L119.273 9.192H123.625L127.241 21.064L130.665 9.192ZM161.164 11.4L161.292 9.224H165.036V25H161.356L161.164 22.696C160.268 24.552 157.804 25.448 156.044 25.48C151.372 25.512 147.916 22.632 147.916 17.096C147.916 11.656 151.532 8.808 156.14 8.84C158.252 8.84 160.268 9.832 161.164 11.4ZM156.492 12.328C153.9 12.328 151.82 14.088 151.82 17.096C151.82 20.104 153.9 21.896 156.492 21.896C162.636 21.896 162.636 12.328 156.492 12.328ZM168.343 9.224H171.959L172.247 11.048C173.463 9.096 175.095 8.808 176.695 8.808C178.327 8.808 179.895 9.448 180.759 10.312L178.999 13.704C178.199 13.032 177.463 12.68 176.183 12.68C174.135 12.68 172.247 13.768 172.247 16.68V25H168.343V9.224ZM197.866 18.504H185.546C185.802 20.456 187.498 21.864 190.25 21.864C191.69 21.864 193.578 21.32 194.474 20.392L196.97 22.856C195.306 24.584 192.586 25.416 190.186 25.416C184.746 25.416 181.514 22.056 181.514 17C181.514 12.2 184.778 8.744 189.898 8.744C195.178 8.744 198.474 12.008 197.866 18.504ZM185.61 15.272H194.122C193.866 13.224 192.266 12.2 190.026 12.2C187.914 12.2 186.186 13.224 185.61 15.272Z" fill="#6C6C6C"/>
</svg>
