<svg width="24" height="24" viewBox="0 0 24 24" fill="none" xmlns="http://www.w3.org/2000/svg">
<mask id="mask0_1188_1117" style="mask-type:alpha" maskUnits="userSpaceOnUse" x="0" y="0" width="24" height="24">
<rect width="24" height="24" fill="#D9D9D9"/>
</mask>
<g mask="url(#mask0_1188_1117)">
<path d="M15.7736 12.973L14.6506 11.85C14.8006 11.0218 14.5643 10.2772 13.9419 9.61635C13.3195 8.95545 12.5557 8.7 11.6506 8.85L10.5275 7.72695C10.7531 7.62566 10.9846 7.54971 11.2217 7.49907C11.4589 7.44842 11.7185 7.4231 12.0006 7.4231C13.1352 7.4231 14.0983 7.81893 14.89 8.6106C15.6816 9.40226 16.0775 10.3654 16.0775 11.5C16.0775 11.782 16.0521 12.0449 16.0015 12.2884C15.9509 12.532 15.8749 12.7602 15.7736 12.973ZM18.9544 16.0846L17.8506 15.05C18.4839 14.5667 19.0464 14.0375 19.5381 13.4625C20.0297 12.8875 20.4506 12.2333 20.8006 11.5C19.9672 9.81666 18.7714 8.47916 17.2131 7.4875C15.6547 6.49583 13.9172 6 12.0006 6C11.5172 6 11.0422 6.03333 10.5756 6.1C10.1089 6.16666 9.65056 6.26666 9.20056 6.4L8.03521 5.23465C8.66726 4.98336 9.31277 4.79811 9.97174 4.67887C10.6307 4.55964 11.307 4.50002 12.0006 4.50002C14.3441 4.50002 16.4576 5.14617 18.3409 6.43847C20.2242 7.73079 21.598 9.41796 22.4621 11.5C22.0915 12.3936 21.613 13.2275 21.0265 14.0019C20.44 14.7762 19.7493 15.4705 18.9544 16.0846ZM19.7621 21.8692L15.716 17.8538C15.2031 18.0435 14.6349 18.1987 14.0112 18.3192C13.3874 18.4397 12.7172 18.5 12.0006 18.5C9.65058 18.5 7.53713 17.8538 5.66021 16.5615C3.7833 15.2692 2.40958 13.582 1.53906 11.5C1.9083 10.6167 2.38522 9.79262 2.96984 9.02787C3.55445 8.26314 4.19805 7.60001 4.90061 7.03847L2.13136 4.23847L3.18521 3.18465L20.8159 20.8153L19.7621 21.8692ZM5.95444 8.09227C5.42624 8.51279 4.91245 9.01825 4.41309 9.60865C3.91372 10.199 3.50955 10.8295 3.20056 11.5C4.0339 13.1833 5.22973 14.5208 6.78806 15.5125C8.3464 16.5042 10.0839 17 12.0006 17C12.4557 17 12.9089 16.9615 13.3602 16.8846C13.8115 16.8077 14.1942 16.7282 14.5083 16.6461L13.2429 15.35C13.0724 15.4192 12.8749 15.4743 12.6506 15.5153C12.4262 15.5564 12.2095 15.5769 12.0006 15.5769C10.866 15.5769 9.90283 15.1811 9.11116 14.3894C8.3195 13.5977 7.92366 12.6346 7.92366 11.5C7.92366 11.2974 7.94418 11.0856 7.98521 10.8644C8.02625 10.6433 8.08137 10.441 8.15059 10.2577L5.95444 8.09227Z" fill="#8E98A8"/>
</g>
</svg>
