<svg width="20" height="20" viewBox="0 0 20 20" fill="none" xmlns="http://www.w3.org/2000/svg">
<mask id="mask0_1188_11450" style="mask-type:alpha" maskUnits="userSpaceOnUse" x="0" y="0" width="20" height="20">
<rect width="20" height="20" fill="#D9D9D9"/>
</mask>
<g mask="url(#mask0_1188_11450)">
<path d="M3.75772 16.5839C3.38261 16.5839 3.06554 16.4544 2.80651 16.1954C2.54748 15.9363 2.41797 15.6193 2.41797 15.2442V6.75703C2.41797 6.38192 2.54748 6.06485 2.80651 5.80582C3.06554 5.54679 3.38261 5.41728 3.75772 5.41728H7.41797V4.1693C7.41797 3.79298 7.54766 3.47635 7.80705 3.2194C8.06644 2.96246 8.38394 2.83398 8.75955 2.83398H11.2503C11.626 2.83398 11.9422 2.9635 12.1992 3.22253C12.4561 3.48155 12.5846 3.79862 12.5846 4.17371V5.41728H16.2448C16.62 5.41728 16.937 5.54679 17.1961 5.80582C17.4551 6.06485 17.5846 6.38192 17.5846 6.75703V15.2442C17.5846 15.6193 17.4551 15.9363 17.1961 16.1954C16.937 16.4544 16.62 16.5839 16.2448 16.5839H3.75772ZM3.75772 15.5006H16.2448C16.309 15.5006 16.3677 15.4739 16.4212 15.4205C16.4746 15.367 16.5013 15.3083 16.5013 15.2442V6.75703C16.5013 6.69292 16.4746 6.63414 16.4212 6.58071C16.3677 6.5273 16.309 6.50059 16.2448 6.50059H3.75772C3.69361 6.50059 3.63484 6.5273 3.58141 6.58071C3.52799 6.63414 3.50128 6.69292 3.50128 6.75703V15.2442C3.50128 15.3083 3.52799 15.367 3.58141 15.4205C3.63484 15.4739 3.69361 15.5006 3.75772 15.5006ZM8.50128 5.41728H11.5013V4.17371C11.5013 4.1096 11.4746 4.05084 11.4212 3.99742C11.3677 3.94399 11.309 3.91728 11.2448 3.91728H8.75772C8.69361 3.91728 8.63484 3.94399 8.58141 3.99742C8.52799 4.05084 8.50128 4.1096 8.50128 4.17371V5.41728Z" fill="#1C1B1F"/>
</g>
</svg>
