<svg width="20" height="20" viewBox="0 0 20 20" fill="none" xmlns="http://www.w3.org/2000/svg">
<path d="M0.832031 19.9982V17.2483H19.1654V19.9982H0.832031ZM4.4987 13.044H5.63218L13.2406 5.44969L12.6641 4.86442L12.093 4.3021L4.4987 11.9105V13.044ZM3.12372 14.4189V11.3252L13.3992 1.06383C13.532 0.931039 13.6827 0.830564 13.8514 0.76241C14.02 0.69424 14.1955 0.660156 14.3777 0.660156C14.56 0.660156 14.7366 0.69424 14.9074 0.76241C15.0783 0.830564 15.2349 0.935745 15.3771 1.07795L16.4788 2.19381C16.621 2.3266 16.7238 2.47868 16.7873 2.65003C16.8507 2.8214 16.8825 2.99848 16.8825 3.18127C16.8825 3.35264 16.8503 3.5231 16.786 3.69267C16.7216 3.86224 16.6192 4.0172 16.4788 4.15754L6.21742 14.4189H3.12372ZM13.2406 5.44969L12.6641 4.86442L12.093 4.3021L13.2406 5.44969Z" fill="#4D4D4D"/>
</svg>
